:SAMPLES-PER-SECOND 30
:FULLY-SPECIFIED
:DEGREES
84
root  -6.09437 37.6865 14.4246 175.3 36.6082 175.186
RightUpLeg  -16.2995 -8.70406 -19.9206
RightLeg  30.4231 -2.3724 -1.74202
RightFoot  -3.66683 -1.57831 22.8668
RightToes  -1.39699e-009 0 -3.6325e-017
Spine  11.7203 -0.125932 -11.6697
Spine1  20.4525 -3.88615 5.49866
HEad  -18.5432 33.9435 -14.5819
LeftShoulder1  0.676322 0.0206278 -12.3005
LeftArm  8.54725 -9.51857 -56.899
LeftForeArm  92.034 -79.4931 -98.5518
LeftHand  -1.27901 -2.56422 18.7637
RightShoulder  0.925419 1.17463 12.8269
RightArm  -3.16699 -18.8312 54.0553
RightForeArm  133.66 67.1387 152.567
RightHand  -1.08863 3.18825 -14.8984
LeftUpLeg  -6.74107 -1.58301 1.53675
LeftLeg  34.1569 -2.72984 -1.61624
LeftFoot  -21.8726 -0.997198 -12.2033
LeftToes  3.40148e-010 1.80944e-010 1.01921e-010
85
root  -6.42585 37.4479 14.4281 174.513 36.535 174.896
RightUpLeg  -17.0182 -7.80492 -20.491
RightLeg  32.9323 -4.08323 -3.08159
RightFoot  -3.40644 -1.58932 22.3191
RightToes  -1.39699e-009 0 -3.6325e-017
Spine  11.6715 0.33205 -12.3763
Spine1  21.6181 -3.77556 6.00164
HEad  -18.6527 33.0553 -14.131
LeftShoulder1  0.858082 -0.693779 -13.4457
LeftArm  8.69892 -9.48731 -56.1756
LeftForeArm  85.1648 -79.6145 -91.4159
LeftHand  -1.46676 -2.85808 20.7106
RightShoulder  0.865771 0.687392 13.8034
RightArm  -3.60876 -19.6301 55.3298
RightForeArm  133.513 68.0661 151.326
RightHand  -1.21688 3.59969 -15.875
LeftUpLeg  -6.99239 -1.74306 0.696896
LeftLeg  35.6186 -2.16705 -1.2882
LeftFoot  -23.279 -1.03464 -11.1929
LeftToes  3.40148e-010 1.80944e-010 1.01921e-010
86
root  -6.63028 37.4357 14.4441 174.492 36.4122 175.094
RightUpLeg  -17.1866 -7.44289 -20.1972
RightLeg  33.8604 -5.23781 -4.01017
RightFoot  -3.24776 -1.54392 21.265
RightToes  -1.39699e-009 0 -3.6325e-017
Spine  11.516 0.519808 -12.0256
Spine1  22.0736 -3.38033 5.56316
HEad  -18.2973 32.2322 -13.3917
LeftShoulder1  1.00646 -1.12926 -14.8622
LeftArm  9.08076 -7.71533 -55.5878
LeftForeArm  78.8183 -79.5944 -84.6669
LeftHand  -1.61331 -2.87883 22.6577
RightShoulder  0.847026 0.412543 14.8789
RightArm  -3.12742 -20.7394 56.6804
RightForeArm  134.392 68.9106 150.234
RightHand  -1.33896 4.09129 -16.5623
LeftUpLeg  -7.05073 -2.07263 0.472122
LeftLeg  35.5526 -1.72566 -0.94475
LeftFoot  -23.5434 -1.00356 -10.6799
LeftToes  3.40148e-010 1.80944e-010 1.01921e-010
87
root  -6.7185 37.6587 14.4826 175.088 36.1073 175.655
RightUpLeg  -16.7598 -7.61132 -19.224
RightLeg  33.1066 -5.23456 -3.91018
RightFoot  -3.96867 -1.38107 20.8194
RightToes  -1.39699e-009 0 -3.6325e-017
Spine  11.3623 0.436991 -11.1636
Spine1  22.0559 -3.02787 4.81418
HEad  -18.0191 31.6281 -12.7143
LeftShoulder1  1.10194 -1.24716 -16.4659
LeftArm  9.3455 -4.25284 -54.9248
LeftForeArm  77.3863 -79.5708 -82.9907
LeftHand  -1.71624 -2.86588 24.0831
RightShoulder  0.853577 0.335285 15.5524
RightArm  -1.63307 -21.7364 57.6986
RightForeArm  136.233 69.3368 149.829
RightHand  -1.34695 4.37012 -16.1969
LeftUpLeg  -6.91042 -2.77979 0.711987
LeftLeg  34.1205 -1.35959 -0.617145
LeftFoot  -22.4053 -0.906443 -10.7211
LeftToes  3.40148e-010 1.80944e-010 1.01921e-010
88
root  -6.68887 38.0505 14.5518 176.123 35.5637 176.354
RightUpLeg  -15.8763 -8.59013 -17.8031
RightLeg  30.8834 -3.87451 -2.7446
RightFoot  -4.61126 -1.33995 21.9835
RightToes  -1.39699e-009 0 -3.6325e-017
Spine  11.0164 0.263126 -10.3761
Spine1  21.9682 -2.84436 4.34553
HEad  -17.979 31.0974 -12.1489
LeftShoulder1  1.164 -1.24106 -17.9133
LeftArm  9.51768 0.276841 -54.2362
LeftForeArm  79.1395 -79.5857 -85.3635
LeftHand  -1.80409 -2.91676 25.1199
RightShoulder  0.852945 0.32779 15.5842
RightArm  0.331722 -22.1474 58.2553
RightForeArm  138.079 69.385 149.996
RightHand  -1.20231 4.27639 -14.6311
LeftUpLeg  -6.76969 -3.64562 1.27672
LeftLeg  31.835 -0.936448 -0.261913
LeftFoot  -20.0259 -0.715241 -10.9711
LeftToes  3.40148e-010 1.80944e-010 1.01921e-010
89
root  -6.54826 38.5125 14.6542 177.489 35.0591 176.956
RightUpLeg  -14.9748 -10.4633 -16.1098
RightLeg  27.8459 -2.10426 -1.43215
RightFoot  -3.47994 -1.70926 24.1268
RightToes  -1.39699e-009 0 -3.6325e-017
Spine  10.2402 0.216671 -9.77258
Spine1  21.8524 -2.54935 4.0039
HEad  -17.7817 30.3837 -11.4255
LeftShoulder1  1.1941 -1.19946 -18.8367
LeftArm  10.0277 5.00958 -53.7601
LeftForeArm  79.8499 -79.5399 -87.6586
LeftHand  -1.86029 -2.89021 25.9511
RightShoulder  0.827344 0.271642 15.2026
RightArm  2.01695 -21.8408 58.3973
RightForeArm  138.909 69.184 150.405
RightHand  -0.996646 3.8942 -12.6788
LeftUpLeg  -6.83502 -4.09462 2.06939
LeftLeg  29.0808 -0.657309 -0.0378947
LeftFoot  -16.9507 -0.456158 -11.3615
LeftToes  3.40148e-010 1.80944e-010 1.01921e-010
90
root  -6.33239 38.9586 14.7856 178.973 34.892 177.33
RightUpLeg  -14.3923 -12.28 -14.3455
RightLeg  24.9215 -1.66145 -1.05385
RightFoot  -0.771015 -2.37961 25.3157
RightToes  -1.39699e-009 0 -3.6325e-017
Spine  9.19179 0.377614 -9.10089
Spine1  21.5338 -1.87584 3.33598
HEad  -17.181 29.431 -10.4289
LeftShoulder1  1.19384 -1.14846 -19.1289
LeftArm  11.0912 9.37663 -53.4228
LeftForeArm  78.7168 -79.4714 -88.1043
LeftHand  -1.87638 -2.76519 26.5481
RightShoulder  0.781063 0.135094 14.7104
RightArm  3.13198 -20.9451 58.2697
RightForeArm  138.561 68.7678 150.965
RightHand  -0.829177 3.39088 -11.1833
LeftUpLeg  -7.04793 -3.87643 2.91312
LeftLeg  26.1736 -0.675134 -0.0118153
LeftFoot  -13.6843 -0.163543 -11.9829
LeftToes  3.40148e-010 1.80944e-010 1.01921e-010
91
root  -6.0863 39.3364 14.935 -179.712 34.9312 177.576
RightUpLeg  -13.9235 -12.9 -12.7247
RightLeg  22.5372 -3.12794 -1.63593
RightFoot  1.4582 -2.74493 24.2378
RightToes  -1.39699e-009 0 -3.6325e-017
Spine  8.29462 0.630251 -8.17757
Spine1  21.0279 -1.00269 2.3919
HEad  -16.4914 28.4431 -9.47775
LeftShoulder1  1.18897 -1.16143 -18.941
LeftArm  12.5445 13.2248 -52.9176
LeftForeArm  77.8256 -79.4372 -87.9516
LeftHand  -1.88132 -2.67689 26.8927
RightShoulder  0.723687 -0.0484773 14.1402
RightArm  3.87324 -19.59 58.037
RightForeArm  137.713 68.1854 151.671
RightHand  -0.706166 2.8645 -10.1376
LeftUpLeg  -7.17757 -3.36946 3.69603
LeftLeg  23.4603 -0.784516 -0.0318504
LeftFoot  -10.6744 0.137173 -12.6436
LeftToes  3.40148e-010 1.80944e-010 1.01921e-010
92
root  -5.82004 39.6132 15.0996 -178.789 34.774 177.813
RightUpLeg  -13.1107 -12.5558 -11.3725
RightLeg  20.3994 -5.26766 -2.3767
RightFoot  1.99507 -2.52215 21.4372
RightToes  -1.39699e-009 0 -3.6325e-017
Spine  7.78151 0.836495 -7.24097
Spine1  20.5174 -0.345941 1.73843
HEad  -16.0851 27.6285 -8.94288
LeftShoulder1  1.19669 -1.25822 -18.5582
LeftArm  14.2065 16.431 -52.0852
LeftForeArm  77.7869 -79.4326 -88.0289
LeftHand  -1.88443 -2.65982 26.99
RightShoulder  0.662231 -0.247779 13.4754
RightArm  4.47309 -17.8042 57.6935
RightForeArm  137.236 67.6054 152.385
RightHand  -0.607482 2.39316 -9.25447
LeftUpLeg  -7.11209 -3.10364 4.45459
LeftLeg  21.2535 -0.794043 -0.00492981
LeftFoot  -8.38327 0.390826 -13.1617
LeftToes  3.40148e-010 1.80944e-010 1.01921e-010
93
root  -5.52255 39.7361 15.293 -178.4 34.3966 177.906
RightUpLeg  -12.2002 -12.1312 -10.3744
RightLeg  18.7519 -6.80631 -2.77177
RightFoot  1.29562 -2.06051 18.5298
RightToes  -1.39699e-009 0 -3.6325e-017
Spine  7.62705 1.04684 -6.70341
Spine1  20.1049 0.0166762 1.68503
HEad  -15.8905 26.9722 -8.77045
LeftShoulder1  1.21718 -1.39223 -18.2682
LeftArm  16.0083 18.6443 -50.9604
LeftForeArm  77.0589 -79.4256 -87.3392
LeftHand  -1.86891 -2.6562 26.7883
RightShoulder  0.605921 -0.444144 12.8888
RightArm  4.89923 -15.6293 57.1241
RightForeArm  137.567 67.2054 152.934
RightHand  -0.560926 2.12846 -8.84569
LeftUpLeg  -7.07863 -3.24326 5.14089
LeftLeg  20.1212 -0.781508 0.0157056
LeftFoot  -7.14749 0.546926 -13.723
LeftToes  3.40148e-010 1.80944e-010 1.01921e-010
94
root  -5.20338 39.6576 15.5222 -178.571 34.2526 177.627
RightUpLeg  -12.1328 -11.5231 -9.83951
RightLeg  18.9529 -7.70503 -3.11247
RightFoot  -0.179501 -1.64225 16.6899
RightToes  -1.39699e-009 0 -3.6325e-017
Spine  7.73137 1.38291 -6.52781
Spine1  19.783 0.431842 1.73722
HEad  -15.6331 26.3755 -8.60009
LeftShoulder1  1.25537 -1.57537 -18.1142
LeftArm  17.6826 19.6058 -49.7485
LeftForeArm  74.4895 -79.3934 -84.7321
LeftHand  -1.83549 -2.66759 26.2937
RightShoulder  0.566699 -0.589716 12.4973
RightArm  4.94581 -13.2804 56.5049
RightForeArm  138.333 67.0833 153.175
RightHand  -0.592493 2.15084 -9.29879
LeftUpLeg  -7.43543 -3.46405 5.59236
LeftLeg  20.7259 -0.966002 -0.0725789
LeftFoot  -7.06579 0.585515 -14.5021
LeftToes  3.40148e-010 1.80944e-010 1.01921e-010
